<svg width="49" height="26" viewBox="0 0 49 26" fill="none" xmlns="http://www.w3.org/2000/svg">
<path fill-rule="evenodd" clip-rule="evenodd" d="M40.4851 0.5L36.6543 4.00506L42.7816 13L36.6543 21.9949L40.4851 25.5L49 13L40.4851 0.5Z" fill="#5282FF"/>
<path fill-rule="evenodd" clip-rule="evenodd" d="M34.1029 7.74242L29.2429 0.5L25.4691 4.00506L30.3291 11.2475C31.0187 12.275 31.0187 13.725 30.3291 14.7525L25.4691 21.9949L29.2429 25.5L34.1029 18.2576C36.1715 15.175 36.1715 10.825 34.1029 7.74242Z" fill="white"/>
<path fill-rule="evenodd" clip-rule="evenodd" d="M15.5738 7.74242L20.581 0.5L24.4691 4.00506L19.4619 11.2475C18.7514 12.275 18.7514 13.725 19.4619 14.7525L24.4691 21.9949L20.581 25.5L15.5738 18.2576C13.4425 15.175 13.4425 10.825 15.5738 7.74242Z" fill="white"/>
<path fill-rule="evenodd" clip-rule="evenodd" d="M9.14453 0.5L12.9753 4.00506L6.84804 13L12.9753 21.9949L9.14453 25.5L0.629639 13L9.14453 0.5Z" fill="#5282FF"/>
</svg>
